<svg xmlns="http://www.w3.org/2000/svg" xmlns:xlink="http://www.w3.org/1999/xlink" width="250" zoomAndPan="magnify" viewBox="0 0 187.5 112.499997" height="150" preserveAspectRatio="xMidYMid meet" version="1.0"><defs><g/></defs><g fill="#fc5348" fill-opacity="1"><g transform="translate(36.524648, 44.800882)"><g><path d="M 1.953125 0 L 1.953125 -19.9375 L 5.234375 -19.9375 L 14.15625 -19.953125 C 17.757812 -19.953125 20.554688 -19.109375 22.546875 -17.421875 C 24.535156 -15.734375 25.53125 -13.253906 25.53125 -9.984375 C 25.53125 -6.710938 24.535156 -4.226562 22.546875 -2.53125 C 20.554688 -0.84375 17.757812 0 14.15625 0 Z M 13.859375 -16.328125 L 6.40625 -16.328125 L 6.40625 -3.625 L 13.859375 -3.625 C 16.191406 -3.625 17.960938 -4.132812 19.171875 -5.15625 C 20.378906 -6.175781 20.984375 -7.785156 20.984375 -9.984375 C 20.984375 -12.191406 20.378906 -13.800781 19.171875 -14.8125 C 17.960938 -15.820312 16.191406 -16.328125 13.859375 -16.328125 Z M 13.859375 -16.328125 "/></g></g></g><g fill="#fc5348" fill-opacity="1"><g transform="translate(62.891844, 44.800882)"><g><path d="M 0.28125 0 L 9.25 -19.9375 L 16.140625 -19.9375 L 25.109375 0 L 20.265625 0 L 18.375 -4.203125 L 7.03125 -4.203125 L 5.125 0 Z M 8.640625 -7.828125 L 16.75 -7.828125 L 12.875 -16.453125 L 12.515625 -16.453125 Z M 8.640625 -7.828125 "/></g></g></g><g fill="#fc5348" fill-opacity="1"><g transform="translate(88.283511, 44.800882)"><g><path d="M 1.25 -9.84375 L 1.25 -19.9375 L 25.78125 -19.9375 L 25.78125 -9.84375 L 21.265625 -9.84375 L 21.265625 -16.3125 L 15.1875 -16.3125 L 15.1875 0 L 10.734375 0 L 10.734375 -16.3125 L 5.765625 -16.3125 L 5.765625 -9.84375 Z M 1.25 -9.84375 "/></g></g></g><g fill="#fc5348" fill-opacity="1"><g transform="translate(115.31964, 44.800882)"><g><path d="M 0.28125 0 L 9.25 -19.9375 L 16.140625 -19.9375 L 25.109375 0 L 20.265625 0 L 18.375 -4.203125 L 7.03125 -4.203125 L 5.125 0 Z M 8.640625 -7.828125 L 16.75 -7.828125 L 12.875 -16.453125 L 12.515625 -16.453125 Z M 8.640625 -7.828125 "/></g></g></g><g fill="#fc5348" fill-opacity="1"><g transform="translate(140.721698, 44.800882)"><g/></g></g><g fill="#fc5348" fill-opacity="1"><g transform="translate(36.524648, 83.628313)"><g><path d="M 1.953125 0 L 1.953125 -19.9375 L 23.25 -19.9375 L 23.25 -16.3125 L 6.40625 -16.3125 L 6.40625 -10.78125 L 21.078125 -10.78125 L 21.078125 -7.15625 L 6.40625 -7.15625 L 6.40625 0 Z M 1.953125 0 "/></g></g></g><g fill="#fc5348" fill-opacity="1"><g transform="translate(60.885036, 83.628313)"><g><path d="M 1.953125 0 L 1.953125 -19.9375 L 23.8125 -19.9375 L 23.8125 -16.3125 L 6.40625 -16.3125 L 6.40625 -11.90625 L 22.1875 -11.90625 L 22.1875 -8.28125 L 6.40625 -8.28125 L 6.40625 -3.625 L 23.8125 -3.625 L 23.8125 0 Z M 1.953125 0 "/></g></g></g><g fill="#fc5348" fill-opacity="1"><g transform="translate(85.802872, 83.628313)"><g><path d="M 1.953125 0 L 1.953125 -19.9375 L 5.6875 -19.9375 L 14.90625 -13.46875 L 15.046875 -13.46875 L 24.28125 -19.9375 L 28.015625 -19.9375 L 28.015625 0 L 23.546875 0 L 23.546875 -14.359375 L 17.234375 -10.125 L 17.234375 0 L 12.765625 0 L 12.765625 -10.125 L 6.40625 -14.359375 L 6.40625 0 Z M 1.953125 0 "/></g></g></g><g fill="#fc5348" fill-opacity="1"><g transform="translate(115.765604, 83.628313)"><g><path d="M 1.3125 0.140625 L 1.3125 -3.484375 L 17.34375 -3.453125 C 18.15625 -3.453125 18.78125 -3.640625 19.21875 -4.015625 C 19.65625 -4.398438 19.875 -5.019531 19.875 -5.875 C 19.875 -6.726562 19.65625 -7.347656 19.21875 -7.734375 C 18.78125 -8.117188 18.15625 -8.3125 17.34375 -8.3125 L 7.359375 -8.3125 C 5.296875 -8.3125 3.691406 -8.804688 2.546875 -9.796875 C 1.410156 -10.796875 0.84375 -12.257812 0.84375 -14.1875 C 0.84375 -16.125 1.410156 -17.585938 2.546875 -18.578125 C 3.691406 -19.566406 5.296875 -20.0625 7.359375 -20.0625 L 23.03125 -20.0625 L 23.03125 -16.453125 L 7.828125 -16.46875 C 7.035156 -16.46875 6.414062 -16.285156 5.96875 -15.921875 C 5.519531 -15.566406 5.296875 -14.988281 5.296875 -14.1875 C 5.296875 -13.382812 5.519531 -12.800781 5.96875 -12.4375 C 6.414062 -12.082031 7.035156 -11.90625 7.828125 -11.90625 L 17.8125 -11.90625 C 19.875 -11.90625 21.472656 -11.394531 22.609375 -10.375 C 23.753906 -9.363281 24.328125 -7.863281 24.328125 -5.875 C 24.328125 -3.90625 23.753906 -2.410156 22.609375 -1.390625 C 21.472656 -0.367188 19.875 0.140625 17.8125 0.140625 Z M 1.3125 0.140625 "/></g></g></g></svg>